<?xml version="1.0" standalone="no"?>
<!DOCTYPE svg PUBLIC "-//W3C//DTD SVG 20010904//EN"
 "http://www.w3.org/TR/2001/REC-SVG-20010904/DTD/svg10.dtd">
<svg version="1.0" xmlns="http://www.w3.org/2000/svg"
 width="512.000000pt" height="512.000000pt" viewBox="0 0 512.000000 512.000000"
 preserveAspectRatio="xMidYMid meet">
<metadata>
Created by potrace 1.14, written by Peter Selinger 2001-2017
</metadata>
<g transform="translate(0.000000,512.000000) scale(0.100000,-0.100000)"
fill="#000000" stroke="none">
<path d="M1798 4709 c-60 -31 -71 -64 -73 -217 -1 -150 10 -194 60 -226 36
-24 106 -24 140 -2 54 36 63 66 64 215 0 111 -3 144 -17 171 -35 69 -108 93
-174 59z"/>
<path d="M865 4321 c-61 -37 -83 -109 -51 -169 20 -38 196 -209 226 -220 106
-39 211 79 159 181 -16 32 -179 196 -211 213 -37 19 -87 18 -123 -5z"/>
<path d="M2728 4326 c-39 -21 -206 -190 -218 -221 -41 -107 62 -214 164 -171
34 14 205 177 225 215 59 109 -62 234 -171 177z"/>
<path d="M1729 3925 c-239 -47 -434 -227 -504 -465 -14 -47 -19 -97 -19 -180
0 -100 3 -126 28 -200 68 -204 216 -350 429 -426 20 -7 37 -11 37 -9 0 3 12 0
28 -6 43 -17 209 -14 282 5 297 76 501 337 502 641 0 39 -5 93 -12 120 -6 28
-13 59 -16 70 -2 11 -22 58 -45 105 -84 170 -275 316 -454 346 -67 12 -194 11
-256 -1z"/>
<path d="M523 3409 c-120 -24 -148 -179 -44 -237 34 -20 54 -22 172 -22 147 0
185 10 221 61 24 33 26 98 3 137 -32 54 -64 64 -201 66 -68 0 -136 -2 -151 -5z"/>
<path d="M2921 3407 c-43 -9 -86 -50 -97 -93 -10 -40 6 -95 35 -125 35 -35 84
-42 238 -37 133 4 165 17 189 75 29 67 5 137 -58 169 -36 18 -233 26 -307 11z"/>
<path d="M1034 2631 c-33 -14 -212 -195 -224 -225 -42 -111 59 -216 164 -172
35 15 189 161 221 210 21 32 22 100 1 131 -33 50 -112 77 -162 56z"/>
<path d="M2571 2623 c-58 -29 -87 -105 -63 -166 12 -29 203 -215 231 -225 77
-27 166 24 171 98 6 72 2 79 -97 182 -125 128 -167 148 -242 111z"/>
<path d="M1790 2298 c-58 -34 -64 -57 -64 -213 0 -154 8 -188 51 -219 39 -29
111 -32 150 -7 50 32 60 68 61 220 1 120 -1 139 -20 172 -36 65 -115 86 -178
47z"/>
<path d="M3585 2096 c-125 -39 -251 -122 -354 -231 -120 -129 -185 -258 -227
-455 -3 -14 -6 -69 -8 -124 -8 -284 125 -552 359 -724 279 -205 667 -222 965
-42 146 88 290 254 354 407 38 91 41 122 14 156 -36 43 -76 43 -161 -3 -178
-96 -388 -104 -569 -22 -63 28 -167 105 -201 149 -10 13 -24 29 -30 36 -19 21
-36 49 -64 107 -87 180 -81 396 17 577 46 85 47 114 7 155 -31 31 -43 33 -102
14z"/>
</g>
</svg>
